<svg width="50" height="50" fill="none" viewBox="0 0 50 50" xmlns="http://www.w3.org/2000/svg">

    <g id="gitIcon">
        <path xmlns="http://www.w3.org/2000/svg" fill-rule="evenodd" clip-rule="evenodd" d="M44 0C19.69 0 0 19.69 0 44C0 63.47 12.595 79.915 30.085 85.745C32.285 86.13 33.11 84.81 33.11 83.655C33.11 82.61 33.055 79.145 33.055 75.46C22 77.495 19.14 72.765 18.26 70.29C17.765 69.025 15.62 65.12 13.75 64.075C12.21 63.25 10.01 61.215 13.695 61.16C17.16 61.105 19.635 64.35 20.46 65.67C24.42 72.325 30.745 70.455 33.275 69.3C33.66 66.44 34.815 64.515 36.08 63.415C26.29 62.315 16.06 58.52 16.06 41.69C16.06 36.905 17.765 32.945 20.57 29.865C20.13 28.765 18.59 24.255 21.01 18.205C21.01 18.205 24.695 17.05 33.11 22.715C36.63 21.725 40.37 21.23 44.11 21.23C47.85 21.23 51.59 21.725 55.11 22.715C63.525 16.995 67.21 18.205 67.21 18.205C69.63 24.255 68.09 28.765 67.65 29.865C70.455 32.945 72.16 36.85 72.16 41.69C72.16 58.575 61.875 62.315 52.085 63.415C53.68 64.79 55.055 67.43 55.055 71.555C55.055 77.44 55 82.17 55 83.655C55 84.81 55.825 86.185 58.025 85.745C66.7597 82.796 74.3497 77.1822 79.7268 69.6937C85.1039 62.2052 87.9974 53.219 88 44C88 19.69 68.31 0 44 0Z" fill="white"/>
    </g>

    <g id="vscode">
        <path d="M101.535 17.605L81.354 7.88899C80.2143 7.33948 78.9319 7.15814 77.6845 7.37011C76.4372 7.58208 75.2867 8.17686 74.3925 9.07199L8.32998 69.3C7.52845 70.0273 7.04865 71.0432 6.99614 72.1243C6.94363 73.2053 7.32271 74.2629 8.04998 75.0645C8.13748 75.159 8.22498 75.25 8.31948 75.334L13.713 80.234C14.4178 80.8754 15.3249 81.2497 16.277 81.2919C17.229 81.3341 18.1657 81.0416 18.9245 80.465L98.497 20.125C99.098 19.6689 99.8144 19.3897 100.566 19.3186C101.317 19.2476 102.073 19.3877 102.749 19.7231C103.424 20.0585 103.993 20.5758 104.391 21.217C104.789 21.8581 105 22.5975 105 23.352V23.1175C105 21.9656 104.675 20.8372 104.062 19.862C103.449 18.8868 102.573 18.1045 101.535 17.605Z" fill="#0065A9"/>
        <path d="M101.535 94.395L81.354 104.115C80.214 104.662 78.9319 104.843 77.6849 104.631C76.4379 104.419 75.2875 103.825 74.3925 102.932L8.32998 42.7C7.52845 41.9727 7.04865 40.9568 6.99614 39.8758C6.94363 38.7947 7.32271 37.7371 8.04998 36.9355C8.13748 36.841 8.22498 36.75 8.31948 36.666L13.713 31.766C14.4185 31.1219 15.3277 30.7459 16.2821 30.7037C17.2365 30.6615 18.1754 30.9557 18.935 31.535L98.497 91.875C99.098 92.3311 99.8144 92.6104 100.566 92.6814C101.317 92.7524 102.073 92.6123 102.749 92.2769C103.424 91.9415 103.993 91.4242 104.391 90.783C104.789 90.1419 105 89.4025 105 88.648V88.9C104.996 90.0488 104.669 91.1733 104.057 92.1451C103.444 93.1168 102.57 93.8965 101.535 94.395Z" fill="#007ACC"/>
        <path d="M81.354 104.114C80.214 104.662 78.9319 104.843 77.6849 104.631C76.4379 104.419 75.2875 103.825 74.3925 102.931C74.8951 103.428 75.5329 103.764 76.2261 103.899C76.9192 104.034 77.6368 103.962 78.289 103.691C78.9411 103.42 79.4988 102.963 79.8921 102.376C80.2854 101.79 80.4969 101.1 80.5 100.394V11.606C80.5006 10.8965 80.2906 10.2028 79.8966 9.61274C79.5026 9.02271 78.9423 8.56288 78.2868 8.29152C77.6312 8.02016 76.9099 7.94946 76.2141 8.0884C75.5184 8.22734 74.8795 8.56965 74.3785 9.07197C75.2728 8.17717 76.4231 7.58235 77.6702 7.3698C78.9174 7.15724 80.1997 7.33744 81.34 7.88547L101.517 17.5875C102.559 18.0845 103.438 18.8657 104.054 19.8411C104.67 20.8165 104.998 21.9463 105 23.1V88.9C105 90.0528 104.675 91.1822 104.061 92.1581C103.447 93.134 102.571 93.9167 101.531 94.416L81.354 104.114Z" fill="#1F9CF0"/>
    </g>

    <g id="viteIcon">
        <defs>
            <linearGradient id="IconifyId1813088fe1fbc01fb466" x1="-.828%" x2="57.636%" y1="7.652%" y2="78.411%">
                <stop offset="0%" stop-color="#41D1FF"></stop><stop offset="100%" stop-color="#BD34FE"></stop>
            </linearGradient>
            <linearGradient id="IconifyId1813088fe1fbc01fb467" x1="43.376%" x2="50.316%" y1="2.242%" y2="89.03%">
                <stop offset="0%" stop-color="#FFEA83"></stop>
                <stop offset="8.333%" stop-color="#FFDD35"></stop>
                <stop offset="100%" stop-color="#FFA800"></stop>
            </linearGradient>
        </defs>
        <path fill="url(#IconifyId1813088fe1fbc01fb466)" d="M255.153 37.938L134.897 252.976c-2.483 4.44-8.862 4.466-11.382.048L.875 37.958c-2.746-4.814 1.371-10.646 6.827-9.67l120.385 21.517a6.537 6.537 0 0 0 2.322-.004l117.867-21.483c5.438-.991 9.574 4.796 6.877 9.62Z"></path>
        <path fill="url(#IconifyId1813088fe1fbc01fb467)" d="M185.432.063L96.44 17.501a3.268 3.268 0 0 0-2.634 3.014l-5.474 92.456a3.268 3.268 0 0 0 3.997 3.378l24.777-5.718c2.318-.535 4.413 1.507 3.936 3.838l-7.361 36.047c-.495 2.426 1.782 4.5 4.151 3.78l15.304-4.649c2.372-.72 4.652 1.36 4.15 3.788l-11.698 56.621c-.732 3.542 3.979 5.473 5.943 2.437l1.313-2.028l72.516-144.72c1.215-2.423-.88-5.186-3.54-4.672l-25.505 4.922c-2.396.462-4.435-1.77-3.759-4.114l16.646-57.705c.677-2.35-1.37-4.583-3.769-4.113Z"></path>
    </g>

    <g id="react">
        <path fill="#00D8FF" d="M210.483 73.824a171.49 171.49 0 0 0-8.24-2.597c.465-1.9.893-3.777 1.273-5.621c6.238-30.281 2.16-54.676-11.769-62.708c-13.355-7.7-35.196.329-57.254 19.526a171.23 171.23 0 0 0-6.375 5.848a155.866 155.866 0 0 0-4.241-3.917C100.759 3.829 77.587-4.822 63.673 3.233C50.33 10.957 46.379 33.89 51.995 62.588a170.974 170.974 0 0 0 1.892 8.48c-3.28.932-6.445 1.924-9.474 2.98C17.309 83.498 0 98.307 0 113.668c0 15.865 18.582 31.778 46.812 41.427a145.52 145.52 0 0 0 6.921 2.165a167.467 167.467 0 0 0-2.01 9.138c-5.354 28.2-1.173 50.591 12.134 58.266c13.744 7.926 36.812-.22 59.273-19.855a145.567 145.567 0 0 0 5.342-4.923a168.064 168.064 0 0 0 6.92 6.314c21.758 18.722 43.246 26.282 56.54 18.586c13.731-7.949 18.194-32.003 12.4-61.268a145.016 145.016 0 0 0-1.535-6.842c1.62-.48 3.21-.974 4.76-1.488c29.348-9.723 48.443-25.443 48.443-41.52c0-15.417-17.868-30.326-45.517-39.844Zm-6.365 70.984c-1.4.463-2.836.91-4.3 1.345c-3.24-10.257-7.612-21.163-12.963-32.432c5.106-11 9.31-21.767 12.459-31.957c2.619.758 5.16 1.557 7.61 2.4c23.69 8.156 38.14 20.213 38.14 29.504c0 9.896-15.606 22.743-40.946 31.14Zm-10.514 20.834c2.562 12.94 2.927 24.64 1.23 33.787c-1.524 8.219-4.59 13.698-8.382 15.893c-8.067 4.67-25.32-1.4-43.927-17.412a156.726 156.726 0 0 1-6.437-5.87c7.214-7.889 14.423-17.06 21.459-27.246c12.376-1.098 24.068-2.894 34.671-5.345a134.17 134.17 0 0 1 1.386 6.193ZM87.276 214.515c-7.882 2.783-14.16 2.863-17.955.675c-8.075-4.657-11.432-22.636-6.853-46.752a156.923 156.923 0 0 1 1.869-8.499c10.486 2.32 22.093 3.988 34.498 4.994c7.084 9.967 14.501 19.128 21.976 27.15a134.668 134.668 0 0 1-4.877 4.492c-9.933 8.682-19.886 14.842-28.658 17.94ZM50.35 144.747c-12.483-4.267-22.792-9.812-29.858-15.863c-6.35-5.437-9.555-10.836-9.555-15.216c0-9.322 13.897-21.212 37.076-29.293c2.813-.98 5.757-1.905 8.812-2.773c3.204 10.42 7.406 21.315 12.477 32.332c-5.137 11.18-9.399 22.249-12.634 32.792a134.718 134.718 0 0 1-6.318-1.979Zm12.378-84.26c-4.811-24.587-1.616-43.134 6.425-47.789c8.564-4.958 27.502 2.111 47.463 19.835a144.318 144.318 0 0 1 3.841 3.545c-7.438 7.987-14.787 17.08-21.808 26.988c-12.04 1.116-23.565 2.908-34.161 5.309a160.342 160.342 0 0 1-1.76-7.887Zm110.427 27.268a347.8 347.8 0 0 0-7.785-12.803c8.168 1.033 15.994 2.404 23.343 4.08c-2.206 7.072-4.956 14.465-8.193 22.045a381.151 381.151 0 0 0-7.365-13.322Zm-45.032-43.861c5.044 5.465 10.096 11.566 15.065 18.186a322.04 322.04 0 0 0-30.257-.006c4.974-6.559 10.069-12.652 15.192-18.18ZM82.802 87.83a323.167 323.167 0 0 0-7.227 13.238c-3.184-7.553-5.909-14.98-8.134-22.152c7.304-1.634 15.093-2.97 23.209-3.984a321.524 321.524 0 0 0-7.848 12.897Zm8.081 65.352c-8.385-.936-16.291-2.203-23.593-3.793c2.26-7.3 5.045-14.885 8.298-22.6a321.187 321.187 0 0 0 7.257 13.246c2.594 4.48 5.28 8.868 8.038 13.147Zm37.542 31.03c-5.184-5.592-10.354-11.779-15.403-18.433c4.902.192 9.899.29 14.978.29c5.218 0 10.376-.117 15.453-.343c-4.985 6.774-10.018 12.97-15.028 18.486Zm52.198-57.817c3.422 7.8 6.306 15.345 8.596 22.52c-7.422 1.694-15.436 3.058-23.88 4.071a382.417 382.417 0 0 0 7.859-13.026a347.403 347.403 0 0 0 7.425-13.565Zm-16.898 8.101a358.557 358.557 0 0 1-12.281 19.815a329.4 329.4 0 0 1-23.444.823c-7.967 0-15.716-.248-23.178-.732a310.202 310.202 0 0 1-12.513-19.846h.001a307.41 307.41 0 0 1-10.923-20.627a310.278 310.278 0 0 1 10.89-20.637l-.001.001a307.318 307.318 0 0 1 12.413-19.761c7.613-.576 15.42-.876 23.31-.876H128c7.926 0 15.743.303 23.354.883a329.357 329.357 0 0 1 12.335 19.695a358.489 358.489 0 0 1 11.036 20.54a329.472 329.472 0 0 1-11 20.722Zm22.56-122.124c8.572 4.944 11.906 24.881 6.52 51.026c-.344 1.668-.73 3.367-1.15 5.09c-10.622-2.452-22.155-4.275-34.23-5.408c-7.034-10.017-14.323-19.124-21.64-27.008a160.789 160.789 0 0 1 5.888-5.4c18.9-16.447 36.564-22.941 44.612-18.3ZM128 90.808c12.625 0 22.86 10.235 22.86 22.86s-10.235 22.86-22.86 22.86s-22.86-10.235-22.86-22.86s10.235-22.86 22.86-22.86Z"></path>
    </g>

    <g id="telegram">
        <path d="M36.7527 0.38643L1.31463 14.2583C-0.111463 14.9043 -0.593806 16.1979 0.969943 16.9L10.0613 19.8328L32.0432 6.04268C33.2434 5.17696 34.4722 5.4078 33.4148 6.36015L14.5354 23.712L13.9424 31.0553C14.4917 32.1891 15.4974 32.1944 16.139 31.6308L21.3623 26.6139L30.308 33.4137C32.3857 34.6623 33.5163 33.8565 33.9633 31.568L39.8309 3.36528C40.4401 0.548323 39.4012 -0.692859 36.7527 0.38643Z" fill="white"/>
    </g>

    <g id="vk">
       <path d="M347.506,240.442c-7.91-9.495-16.899-18.005-25.592-26.235c-3.091-2.927-6.287-5.953-9.368-8.962 c-8.845-8.648-9.167-11.897-2.164-21.72c4.845-6.771,9.982-13.551,14.95-20.108c4.506-5.949,9.166-12.101,13.632-18.273l0.917-1.269 c8.536-11.811,17.364-24.024,22.062-38.757c1.22-3.887,2.501-9.607-0.428-14.39c-2.927-4.779-8.605-6.237-12.622-6.918 c-1.987-0.337-3.96-0.383-5.791-0.383l-55.901-0.04l-0.462-0.004c-8.452,0-14.148,3.983-17.412,12.178 c-3.116,7.83-6.539,16.168-10.445,24.096c-7.773,15.787-17.645,33.97-31.93,49.135l-0.604,0.645 c-1.687,1.813-3.598,3.866-4.995,3.866c-0.214,0-0.447-0.041-0.711-0.124c-2.959-1.153-4.945-8.316-4.855-11.648 c0.001-0.046,0.002-0.092,0.002-0.138l-0.039-64.61c0-0.224-0.016-0.446-0.045-0.668c-1.422-10.503-4.572-17.041-16.474-19.372 c-0.316-0.063-0.639-0.094-0.961-0.094h-58.126c-9.47,0-14.688,3.849-19.593,9.61c-1.324,1.54-4.08,4.746-2.714,8.635 c1.386,3.947,5.885,4.791,7.35,5.065c7.272,1.384,11.371,5.832,12.532,13.604c2.027,13.496,2.276,27.901,0.784,45.334 c-0.416,4.845-1.239,8.587-2.595,11.784c-0.315,0.746-1.432,3.181-2.571,3.182c-0.362,0-1.409-0.142-3.316-1.456 c-4.509-3.089-7.808-7.497-11.654-12.942c-13.084-18.491-24.065-38.861-33.575-62.288c-3.527-8.624-10.114-13.452-18.556-13.594 c-9.276-0.141-17.686-0.209-25.707-0.209c-8.764,0-16.889,0.081-24.823,0.246C8.914,83.74,4.216,85.776,1.744,89.676 c-2.476,3.903-2.315,9.03,0.479,15.236c22.366,49.723,42.645,85.876,65.755,117.228c16.193,21.938,32.435,37.123,51.109,47.784 c19.674,11.255,41.722,16.727,67.402,16.727c2.911,0,5.921-0.071,8.956-0.213c14.922-0.727,20.458-6.128,21.158-20.657 c0.333-7.425,1.145-15.212,4.795-21.853c2.304-4.184,4.452-4.184,5.158-4.184c1.36,0,3.046,0.626,4.857,1.799 c3.248,2.12,6.033,4.96,8.316,7.441c2.149,2.357,4.274,4.738,6.401,7.12c4.59,5.141,9.336,10.456,14.294,15.497 c10.852,11.041,22.807,15.897,36.538,14.843h51.252c0.109,0,0.219-0.004,0.328-0.011c5.107-0.337,9.53-3.17,12.135-7.772 c3.227-5.701,3.162-12.974-0.174-19.46C356.718,251.867,351.808,245.601,347.506,240.442z" fill="white"></path>
    </g>

    <g id="discord">
        <path xmlns="http://www.w3.org/2000/svg" d="M21.1641 1.65906C19.543 0.878258 17.8325 0.320987 16.0751 0.00113909C16.0592 -0.00167518 16.0428 0.000755409 16.0283 0.00809674C16.0137 0.0154381 16.0017 0.0273296 15.9938 0.0421361C15.7735 0.452106 15.5298 0.988347 15.3595 1.40816C13.4651 1.10643 11.5383 1.10643 9.64391 1.40816C9.45393 0.940495 9.23901 0.484433 9.00017 0.0421361C8.99216 0.0274917 8.9801 0.0157372 8.9656 0.00841949C8.9511 0.00110175 8.93482 -0.00143631 8.91892 0.00113909C7.16113 0.319276 5.45021 0.876835 3.82991 1.65906C3.81605 1.66461 3.80445 1.67504 3.7971 1.68858C0.556508 6.77057 -0.332545 11.7279 0.103388 16.623C0.10495 16.6459 0.119013 16.6689 0.1362 16.6836C2.02325 18.1507 4.13396 19.2708 6.37832 19.9962C6.39417 20.0014 6.4112 20.0013 6.42693 19.9957C6.44267 19.99 6.45629 19.9793 6.46582 19.965C6.94707 19.2763 7.37519 18.5498 7.74393 17.7856C7.75162 17.7699 7.75425 17.752 7.75143 17.7345C7.74862 17.7171 7.74051 17.7011 7.72831 17.6889C7.72023 17.6809 7.71065 17.6747 7.70018 17.6708C7.027 17.3993 6.37503 17.0731 5.7502 16.6951C5.73275 16.6847 5.71977 16.6677 5.71395 16.6476C5.70814 16.6274 5.70993 16.6057 5.71895 16.5869C5.72427 16.5747 5.73231 16.564 5.74239 16.5557C5.87364 16.4524 6.00489 16.3442 6.12989 16.236C6.14093 16.2266 6.15418 16.2206 6.16821 16.2186C6.18225 16.2166 6.19655 16.2186 6.20957 16.2245C10.3017 18.1858 14.7314 18.1858 18.7735 16.2245C18.787 16.2183 18.8018 16.2162 18.8164 16.2182C18.831 16.2202 18.8448 16.2264 18.8563 16.236C18.9813 16.3442 19.1126 16.4524 19.2438 16.5557C19.2544 16.5639 19.263 16.5747 19.2687 16.5872C19.2744 16.5996 19.277 16.6134 19.2764 16.6272C19.2758 16.641 19.2719 16.6544 19.2651 16.6663C19.2584 16.6781 19.2489 16.688 19.2376 16.6951C18.6142 17.0765 17.9614 17.4024 17.286 17.6692C17.2752 17.6733 17.2655 17.6798 17.2574 17.6883C17.2493 17.6968 17.243 17.7071 17.2391 17.7184C17.2355 17.7294 17.2341 17.741 17.2349 17.7525C17.2357 17.7641 17.2387 17.7754 17.2438 17.7856C17.6188 18.5482 18.0485 19.2763 18.5204 19.965C18.5299 19.9793 18.5435 19.99 18.5593 19.9957C18.575 20.0013 18.592 20.0014 18.6079 19.9962C20.856 19.2731 22.9701 18.1528 24.8594 16.6836C24.8688 16.6768 24.8767 16.6677 24.8824 16.6572C24.8881 16.6467 24.8914 16.635 24.8922 16.623C25.4141 10.9637 24.0188 6.04738 21.1954 1.69022C21.1925 1.68302 21.1883 1.67653 21.1829 1.67116C21.1775 1.66579 21.1711 1.66167 21.1641 1.65906ZM8.35486 13.6417C7.12206 13.6417 6.10801 12.4544 6.10801 10.9982C6.10801 9.54032 7.10331 8.35305 8.35486 8.35305C9.61579 8.35305 10.6205 9.55016 10.6017 10.9982C10.6017 12.4544 9.60641 13.6417 8.35486 13.6417ZM16.661 13.6417C15.4298 13.6417 14.4142 12.4544 14.4142 10.9982C14.4142 9.54032 15.4095 8.35305 16.661 8.35305C17.922 8.35305 18.9282 9.55016 18.9079 10.9982C18.9079 12.4544 17.922 13.6417 16.661 13.6417Z" fill="white"/>
    </g>

</svg>


