<svg width="120" height="88" viewBox="0 0 120 88" fill="none" xmlns="http://www.w3.org/2000/svg">
<path d="M117.523 33.7463C114.821 31.8713 108.628 31.1681 103.787 32.1056C103.224 27.4181 100.635 23.3171 96.1308 19.6842L93.5414 17.8092L91.7395 20.5046C89.4881 24.0202 88.3622 28.9421 88.6997 33.6296C88.8122 35.2697 89.3752 38.1994 91.0641 40.7775C89.4881 41.715 86.2228 42.8869 81.9445 42.8869H0.541401L0.316401 43.8244C-0.472037 48.5114 -0.472037 63.1594 8.76046 74.4089C15.7411 82.9632 26.0995 87.2991 39.7228 87.2991C69.2212 87.2991 91.0641 73.1194 101.31 47.4567C105.363 47.5739 114.033 47.4567 118.424 38.6677C118.537 38.4333 118.762 37.9646 119.55 36.2072L120 35.2697L117.523 33.7463ZM65.6184 0.700806H53.2341V12.4191H65.6184V0.700806ZM65.6184 14.7628H53.2341V26.4811H65.6184V14.7624V14.7628ZM50.9817 14.7628H38.5973V26.4811H50.9817V14.7624V14.7628ZM36.345 14.7628H23.9602V26.4811H36.345V14.7624V14.7628ZM21.7083 28.8249H9.32343V40.5432H21.7078V28.8244L21.7083 28.8249ZM36.345 28.8249H23.9602V40.5432H36.345V28.8244V28.8249ZM50.9817 28.8249H38.5973V40.5432H50.9817V28.8244V28.8249ZM65.6189 28.8249H53.2336V40.5432H65.6189V28.8244V28.8249ZM80.2556 28.8249H67.8703V40.5432H80.2556V28.8244V28.8249Z" fill="#2396ED"/>
</svg>
