<svg width="120" height="28" viewBox="0 0 120 28" fill="none" xmlns="http://www.w3.org/2000/svg">
<path d="M37.2184 27.3891V1.13491H38.6425V5.26472C38.8106 5.0816 38.9659 4.88708 39.1073 4.68256C40.2967 2.21493 42.8053 0.657562 45.5441 0.688322C48.791 0.591485 51.4295 1.7934 52.98 4.68256C53.9667 6.47743 54.5097 8.4823 54.5636 10.5298C54.6175 12.5773 54.1808 14.6079 53.2899 16.4522C51.8453 19.69 48.2772 21.2998 44.4572 20.7085C43.2684 20.6074 42.1239 20.2102 41.1281 19.5531C40.1322 18.896 39.3169 17.9999 38.7564 16.9467V27.388L37.2184 27.3891ZM38.6425 10.4221L38.9615 13.505C39.5243 17.0139 41.5988 19.0873 44.856 19.477C46.3856 19.7284 47.955 19.4417 49.2968 18.6655C50.6386 17.8894 51.6698 16.672 52.2144 15.2207C53.4813 12.2017 53.3879 8.78388 51.9638 5.83549C51.3825 4.53455 50.3935 3.45817 49.1464 2.76902C47.8992 2.07987 46.4616 1.81539 45.0508 2.01556C43.7266 2.11189 42.4652 2.61826 41.4419 3.46431C40.4187 4.31036 39.6843 5.4541 39.3408 6.73664C39.0376 7.95034 38.8044 9.1805 38.6425 10.421V10.4221ZM83.6409 13.9903C83.4249 15.8388 82.5449 17.546 81.1646 18.7943C79.7842 20.0427 77.9974 20.7472 76.1366 20.7768C70.1646 21.0776 67.362 17.1119 66.9166 12.5355C66.6068 10.0502 67.0102 7.52817 68.0797 5.26358C68.8241 3.71008 70.0438 2.43389 71.5619 1.6199C73.0801 0.805911 74.8181 0.496388 76.5239 0.73617C78.1456 0.874013 79.6829 1.51837 80.9182 2.57806C82.1535 3.63775 83.0243 5.05909 83.4073 6.64094C83.7107 8.08192 83.934 9.5386 84.0761 11.0043H68.3919C68.1014 15.1535 70.3309 18.4892 73.4912 19.2935C77.4273 20.2619 80.7916 18.5564 82.0129 14.814C82.284 13.8536 82.7785 13.718 83.6511 13.9903H83.6409ZM68.3805 9.67592H82.4093C82.3216 5.2556 79.5692 2.0429 75.8358 2.00644C71.6206 1.93809 68.5639 5.02206 68.3805 9.67592ZM86.5403 14.0871H87.9154C87.9659 15.1002 88.2949 16.0797 88.8661 16.9178C89.4373 17.756 90.2287 18.4204 91.1531 18.8378C92.3139 19.3602 93.5775 19.6141 94.8499 19.5805C96.1224 19.547 97.3708 19.2269 98.5025 18.6442C99.1193 18.3664 99.6361 17.906 99.9828 17.3251C100.33 16.7442 100.49 16.0709 100.441 15.3961C100.477 14.7454 100.299 14.1007 99.9354 13.56C99.5715 13.0193 99.0413 12.612 98.425 12.3999C96.9121 11.8371 95.3034 11.5272 93.762 11.0328C92.1581 10.5761 90.5897 10.0027 89.0694 9.31706C86.5858 8.10489 86.432 3.38381 89.2437 1.8891C90.6834 1.07671 92.3036 0.637749 93.9565 0.612277C95.6094 0.586805 97.2424 0.975629 98.7064 1.74327C100.522 2.74582 101.526 4.77028 101.228 6.82436H100.048C100.048 6.7674 99.9414 6.71727 99.9414 6.65917C99.7955 2.89962 96.6352 1.72391 93.2425 2.05429C92.2172 2.16822 91.2454 2.47809 90.334 2.93608C89.7861 3.18628 89.3296 3.60059 89.0275 4.12166C88.7254 4.64274 88.5928 5.24482 88.6479 5.8446C88.649 6.44482 88.8361 7.02996 89.1833 7.51957C89.5305 8.00917 90.0209 8.37922 90.5869 8.57882C92.0679 9.12224 93.6401 9.47086 95.1724 9.89694L98.875 10.8653C99.7166 11.1415 100.454 11.6667 100.991 12.3714C101.528 13.076 101.838 13.927 101.88 14.8117C102.177 16.7997 101.163 18.7535 99.3695 19.6592C96.1317 21.4912 90.7988 21.007 88.4235 18.6909C87.2079 17.4684 86.53 15.8085 86.5437 14.086L86.5403 14.0871ZM119.328 6.8255H118.038C118.038 6.65119 117.97 6.48372 117.951 6.35043C117.93 5.38374 117.578 4.45351 116.953 3.71571C116.328 2.97792 115.468 2.47741 114.518 2.29809C112.726 1.78403 110.814 1.87614 109.079 2.56012C108.393 2.75641 107.79 3.16944 107.358 3.73744C106.926 4.30545 106.69 4.99792 106.685 5.71131C106.66 6.41179 106.878 7.09925 107.302 7.65746C107.726 8.21566 108.33 8.61034 109.011 8.77477L114.906 10.2877C115.543 10.4406 116.171 10.6316 116.785 10.8596C118.665 11.5432 119.941 13.2885 119.998 15.2833C120.026 16.2598 119.758 17.2219 119.23 18.0434C118.701 18.8648 117.936 19.5071 117.036 19.8859C115.668 20.5074 114.185 20.8362 112.682 20.8513C111.18 20.8664 109.691 20.5675 108.31 19.9737C107.175 19.4842 106.217 18.6587 105.565 17.6083C104.914 16.5579 104.599 15.333 104.665 14.0985H105.925C106.399 16.3827 107.967 18.2853 110.119 19.1853C112.272 20.0853 114.729 19.8643 116.686 18.5974C117.273 18.2921 117.761 17.8248 118.091 17.251C118.421 16.6772 118.579 16.0208 118.548 15.3597C118.577 14.7084 118.393 14.0655 118.024 13.5282C117.654 12.991 117.12 12.5889 116.502 12.3828C114.989 11.82 113.38 11.5204 111.839 11.0157C110.226 10.5661 108.648 9.9991 107.118 9.31934C104.693 8.12653 104.5 3.44419 107.263 1.95062C108.721 1.10413 110.373 0.649376 112.058 0.63061C113.743 0.611844 115.405 1.02971 116.881 1.84353C117.725 2.34737 118.405 3.08582 118.837 3.96895C119.269 4.85207 119.435 5.84177 119.314 6.81753L119.328 6.8255ZM34.875 20.3029C34.3673 20.4949 33.807 20.4944 33.2997 20.3015C32.7924 20.1086 32.3732 19.7367 32.1214 19.2559L27.1086 12.3236L26.3818 11.3552L20.5647 19.2662C20.3276 19.7263 19.9312 20.0843 19.4494 20.2734C18.9676 20.4625 18.4335 20.4698 17.9467 20.2938L25.4408 10.2399L18.4685 1.15542C19.5029 0.78174 20.6559 1.18732 21.2312 2.12379L26.4262 9.14161L31.652 2.15113C31.8908 1.69894 32.2876 1.35031 32.7667 1.17156C33.2458 0.992798 33.774 0.99638 34.2506 1.18162L31.5449 4.77142L27.8799 9.54149C27.7782 9.63233 27.6968 9.74362 27.6411 9.8681C27.5854 9.99257 27.5565 10.1274 27.5565 10.2638C27.5565 10.4002 27.5854 10.535 27.6411 10.6595C27.6968 10.7839 27.7782 10.8952 27.8799 10.9861L34.8601 20.3029H34.875ZM66.6944 1.05858V2.42569C65.7138 2.36137 64.7306 2.50338 63.8083 2.84254C62.886 3.1817 62.0451 3.71047 61.3398 4.39474C60.6345 5.07901 60.0805 5.90357 59.7135 6.81519C59.3466 7.7268 59.1749 8.70523 59.2095 9.68732C59.2095 12.8803 59.2095 16.0732 59.2095 19.2662V20.3519H57.823V1.14402H59.1901V5.08016C60.8671 2.20923 63.4555 1.14403 66.7035 1.06656L66.6944 1.05858ZM0.00227889 10.1145L0.612921 7.09892C2.28991 1.13605 9.12545 -1.34525 13.8283 2.34822C16.5819 4.51053 17.2689 7.57399 17.1344 11.0259H1.62116C1.37053 17.1916 5.81933 20.9147 11.5099 19.0144C13.3851 18.3309 14.7967 16.7724 15.2615 14.8356C15.5623 13.8673 16.059 13.7009 16.9681 13.9812C16.8165 15.1616 16.3992 16.2923 15.7476 17.2882C15.096 18.2841 14.2271 19.1193 13.2063 19.731C11.5197 20.6534 9.58459 21.0189 7.67775 20.7752C5.77091 20.5315 3.98995 19.6911 2.58953 18.3742C1.2042 16.8168 0.367981 14.8482 0.205067 12.769C0.205067 12.4272 0.0911409 12.1082 0.0113928 11.8006C0.00379779 11.2257 0 10.6637 0 10.1145H0.00227889ZM1.64053 9.69757H15.6693C15.5816 5.22826 12.7608 2.05771 8.99899 2.02809C4.81108 1.97113 1.81484 5.07218 1.63028 9.6782L1.64053 9.69757Z" fill="#1F2626"/>
</svg>
